{"title":"Ladies and Gentlemen, Mr. Leonard Cohen","uid":9216499,"size":838975355,"categoryP":"video","categoryS":"tv_shows","magnet":"?xt=urn:btih:414deab4c48c87937493a99aa1ac0aa1202b02e6&amp;dn=Ladies+and+Gentlemen%2C+Mr.+Leonard+Cohen&amp;tr=udp%3A%2F%2Ftracker.openbittorrent.com%3A80&amp;tr=udp%3A%2F%2Fopen.demonii.com%3A1337&amp;tr=udp%3A%2F%2Ftracker.coppersurfer.tk%3A6969&amp;tr=udp%3A%2F%2Fexodus.desync.com%3A6969","seeders":2,"leechers":1,"uploader":"user101966","files":2,"time":1384866604,"description":"Ladies and Gentelemen, Mr. Leonard Cohen\n\nIMDB:\n==== &lt;a href=&quot;\nhttp://www.imdb.com/title/tt0126376/&quot; rel=&quot;nofollow&quot; target=&quot;_NEW&quot;&gt;\nhttp://www.imdb.com/title/tt0126376/&lt;/a&gt;\n\nOverview: Snipped from IMDB &quot;reviews&quot; (user barryrd):\n=====================================================\nThis seemingly casual film set in Montreal in 1965 keeps us fixated on the character in the film, namely Leonard Cohen, a poet who came of age in the 1960's. A Donald Brittain documentary, it gives us a glimpse of Cohen going about his daily routine of rising from bed, reading before loving audiences, going to restaurants and bars, and even getting his hair done at a beauty salon. We see him on a broadcast show trading barbs with Pierre Berton and telling the viewers the importance of being in a state of grace. Interesting how this Jewish young man has an affection for Catholic metaphor, which he interprets in his own fashion but which he can explain in terms that make perfect sense.\n\n\n================================ Video Info  ==================================\n\nGeneral\nComplete name                            : \tLadies and Gentlemen, Mr. Leonard Cohen.avi\nFormat                                   : AVI\nFormat/Info                              : Audio Video Interleave\nFile size                                : 800 MiB\nDuration                                 : 44mn 6s\nOverall bit rate mode                    : Variable\nOverall bit rate                         : 2 536 Kbps\nWriting application                      : VirtualDubMod 1.5.4.1 (build 2178/release)\nWriting library                          : VirtualDubMod build 2178/release\n\nVideo\nID                                       : 0\nFormat                                   : MPEG-4 Visual\nFormat profile                           : Advanced Simple@L5\nFormat settings, BVOP                    : 1\nFormat settings, QPel                    : No\nFormat settings, GMC                     : No warppoints\nFormat settings, Matrix                  : Custom\nCodec ID                                 : XVID\nCodec ID/Hint                            : XviD\nDuration                                 : 44mn 6s\nBit rate                                 : 2 350 Kbps\nWidth                                    : 592 pixels\nHeight                                   : 448 pixels\nDisplay aspect ratio                     : 4:3\nFrame rate                               : 23.976 fps\nColor space                              : YUV\nChroma subsampling                       : 4:2:0\nBit depth                                : 8 bits\nScan type                                : Progressive\nCompression mode                         : Lossy\nBits/(Pixel*Frame)                       : 0.370\nStream size                              : 741 MiB (93%)\nWriting library                          : XviD 64\n\nAudio\nID                                       : 1\nFormat                                   : MPEG Audio\nFormat version                           : Version 1\nFormat profile                           : Layer 3\nMode                                     : Joint stereo\nMode extension                           : MS Stereo\nCodec ID                                 : 55\nCodec ID/Hint                            : MP3\nDuration                                 : 44mn 6s\nBit rate mode                            : Variable\nBit rate                                 : 173 Kbps\nNominal bit rate                         : 192 Kbps\nChannel(s)                               : 2 channels\nSampling rate                            : 48.0 KHz\nCompression mode                         : Lossy\nStream size                              : 54.6 MiB (7%)\nAlignment                                : Aligned on interleaves\nInterleave, duration                     : 24 ms (0.58 video frame)\nInterleave, preload duration             : 448 ms\nWriting library                          : LAME3.98r\nEncoding settings                        : -m j -V 4 -q 2 -lowpass 18.6 --abr 192\n","torrent":{"xt":"urn:btih:414deab4c48c87937493a99aa1ac0aa1202b02e6","amp;dn":"Ladies+and+Gentlemen%2C+Mr.+Leonard+Cohen","amp;tr":["udp%3A%2F%2Ftracker.openbittorrent.com%3A80","udp%3A%2F%2Fopen.demonii.com%3A1337","udp%3A%2F%2Ftracker.coppersurfer.tk%3A6969","udp%3A%2F%2Fexodus.desync.com%3A6969"],"infoHash":"414deab4c48c87937493a99aa1ac0aa1202b02e6","infoHashBuffer":{"type":"Buffer","data":[65,77,234,180,196,140,135,147,116,147,169,154,161,172,10,161,32,43,2,230]},"announce":[],"urlList":[]}}